# xmcd
#
# Track frame offsets:
#	150
#	18455
#	32031
#	46630
#	59424
#	75727
#	90562
#	113636
#	131566
#	154246
#	166793
#	185408
#	203179
#	218046
#	231224
#	246535
#	260746
#	275252
#	289314
#
# Disc length: 4396 seconds
#
# Revision: 0
# Processed by: cddbd v1.5.2PL0 Copyright (c) Steve Scherf et al.
# Submitted via: EasyCDDAExtractor 11.0.0.1
#
DISCID=0d112a13
DTITLE=João Carreiro and Capataz - João Carreiro and Capataz Xique Bacanizado Ao V
DTITLE=ivo
DYEAR=1900
DGENRE=
TTITLE0=Lágrimas de Crocodilo
TTITLE1=Faculdade da Pinga
TTITLE2=Oi Nóis Travez
TTITLE3=Caroline e João
TTITLE4=Preta
TTITLE5=Prefiro Tubarões
TTITLE6=Hoje Eu Sei
TTITLE7=Cada Um Com Seus Problemas
TTITLE8=Desatino
TTITLE9=Descartável
TTITLE10=Tá Bagunçado, Mas Te Gerência
TTITLE11=Sábado, Tá Com Raiva de Mim
TTITLE12=Campo Grande Cuibá
TTITLE13=Xique Bacanizado
TTITLE14=O Remédio é Beber
TTITLE15=Exagerado
TTITLE16=Eu Só sei Te Amar
TTITLE17=O Que Será Que Nóis Não Tem
TTITLE18=Cio da Terra, Eu A Viola e Deus, Bruto, Rústico e Sistemático
EXTD=
EXTT0=
EXTT1=
EXTT2=
EXTT3=
EXTT4=
EXTT5=
EXTT6=
EXTT7=
EXTT8=
EXTT9=
EXTT10=
EXTT11=
EXTT12=
EXTT13=
EXTT14=
EXTT15=
EXTT16=
EXTT17=
EXTT18=
PLAYORDER=
